<svg width="75" height="50" viewBox="0 0 75 50" fill="none" xmlns="http://www.w3.org/2000/svg">
<path d="M20.625 25C25.7941 25 30 20.3268 30 14.5833C30 8.83984 25.7941 4.16667 20.625 4.16667C15.4559 4.16667 11.25 8.83984 11.25 14.5833C11.25 20.3268 15.4559 25 20.625 25ZM61.875 8.33333H35.625C34.5891 8.33333 33.75 9.26562 33.75 10.4167V29.1667H7.5V2.08333C7.5 0.932292 6.66094 0 5.625 0H1.875C0.839062 0 0 0.932292 0 2.08333V47.9167C0 49.0677 0.839062 50 1.875 50H5.625C6.66094 50 7.5 49.0677 7.5 47.9167V41.6667H67.5V47.9167C67.5 49.0677 68.3391 50 69.375 50H73.125C74.1609 50 75 49.0677 75 47.9167V22.9167C75 14.862 69.1242 8.33333 61.875 8.33333Z" fill="#F0EFFF"/>
</svg>
