<svg width="78" height="78" viewBox="0 0 78 78" fill="none" xmlns="http://www.w3.org/2000/svg">
<path d="M39 4.33325C32.1436 4.33325 25.4411 6.36642 19.7402 10.1756C14.0393 13.9849 9.59602 19.3991 6.97218 25.7336C4.34834 32.0681 3.66183 39.0384 4.99945 45.7631C6.33707 52.4877 9.63875 58.6647 14.487 63.513C19.3352 68.3612 25.5122 71.6629 32.2369 73.0005C38.9615 74.3381 45.9319 73.6516 52.2664 71.0277C58.6009 68.4039 64.0151 63.9606 67.8243 58.2597C71.6335 52.5588 73.6667 45.8563 73.6667 38.9999C73.6667 29.8057 70.0143 20.9881 63.513 14.4869C57.0118 7.98562 48.1942 4.33325 39 4.33325ZM61.6417 27.3649L33.1717 55.8133L16.3583 38.9999C15.7837 38.4253 15.4609 37.6459 15.4609 36.8333C15.4609 36.0206 15.7837 35.2412 16.3583 34.6666C16.933 34.0919 17.7123 33.7691 18.525 33.7691C19.3377 33.7691 20.117 34.0919 20.6917 34.6666L33.215 47.1899L57.3517 23.0749C57.6362 22.7904 57.974 22.5647 58.3457 22.4107C58.7175 22.2567 59.1159 22.1775 59.5183 22.1775C59.9207 22.1775 60.3192 22.2567 60.6909 22.4107C61.0627 22.5647 61.4005 22.7904 61.685 23.0749C61.9695 23.3594 62.1952 23.6972 62.3492 24.069C62.5032 24.4408 62.5825 24.8392 62.5825 25.2416C62.5825 25.644 62.5032 26.0424 62.3492 26.4142C62.1952 26.7859 61.9695 27.1237 61.685 27.4083L61.6417 27.3649Z" fill="#BD50FF"/>
</svg>
