<svg width="72" height="79" viewBox="0 0 72 79" fill="none" xmlns="http://www.w3.org/2000/svg">
<path d="M0 23.7V67.15C0 75.8439 7.0863 79 11.85 79H71.1V71.1H11.8974C10.0725 71.0526 7.9 70.3337 7.9 67.15C7.9 66.7511 7.93555 66.3955 7.9948 66.0716C8.4372 63.7964 10.3016 63.2395 11.8974 63.2H71.1V7.9C71.1 3.54315 67.5568 0 63.2 0H11.85C7.0863 0 0 3.15605 0 11.85V23.7ZM11.85 7.9H63.2V55.3H7.9V11.85C7.9 8.6663 10.0725 7.9474 11.85 7.9Z" fill="white"/>
<path d="M31.6 47.4H39.5V35.55H51.35V27.65H39.5V15.8H31.6V27.65H19.75V35.55H31.6V47.4Z" fill="white"/>
</svg>
